<svg width="140" height="40" viewBox="0 0 140 40" fill="none" xmlns="http://www.w3.org/2000/svg">
<rect x="0.5" y="0.5" width="139" height="39" rx="3.5" fill="white"/>
<rect x="0.5" y="0.5" width="139" height="39" rx="3.5" stroke="#E5E8EB"/>
<path d="M34.25 12.5H23.75C23.1533 12.5 22.581 12.7371 22.159 13.159C21.7371 13.581 21.5 14.1533 21.5 14.75V15.6275C21.4999 15.9372 21.5637 16.2436 21.6875 16.5275V16.5725C21.7935 16.8132 21.9435 17.032 22.13 17.2175L26.75 21.8075V26.75C26.7497 26.8775 26.782 27.0029 26.8437 27.1144C26.9053 27.226 26.9944 27.3199 27.1025 27.3875C27.2219 27.4615 27.3596 27.5005 27.5 27.5C27.6174 27.4993 27.733 27.471 27.8375 27.4175L30.8375 25.9175C30.9612 25.8552 31.0652 25.7598 31.138 25.642C31.2108 25.5242 31.2496 25.3885 31.25 25.25V21.8075L35.84 17.2175C36.0265 17.032 36.1765 16.8132 36.2825 16.5725V16.5275C36.4166 16.2458 36.4907 15.9393 36.5 15.6275V14.75C36.5 14.1533 36.2629 13.581 35.841 13.159C35.419 12.7371 34.8467 12.5 34.25 12.5ZM29.9675 20.9675C29.898 21.0376 29.843 21.1207 29.8057 21.2121C29.7683 21.3034 29.7494 21.4013 29.75 21.5V24.785L28.25 25.535V21.5C28.2506 21.4013 28.2317 21.3034 28.1943 21.2121C28.157 21.1207 28.102 21.0376 28.0325 20.9675L24.0575 17H33.9425L29.9675 20.9675ZM35 15.5H23V14.75C23 14.5511 23.079 14.3603 23.2197 14.2197C23.3603 14.079 23.5511 14 23.75 14H34.25C34.4489 14 34.6397 14.079 34.7803 14.2197C34.921 14.3603 35 14.5511 35 14.75V15.5Z" fill="#6C6C6C"/>
<path d="M50.9805 25H49.2168V15.1357H55.5059V16.6602H50.9805V19.5312H55.1162V21.001H50.9805V25ZM57.3037 25V17.5215H58.9922V25H57.3037ZM58.1445 16.3047C57.5293 16.3047 57.0986 15.9082 57.0986 15.3682C57.0986 14.8281 57.5293 14.4316 58.1445 14.4316C58.7666 14.4316 59.1904 14.8281 59.1904 15.3682C59.1904 15.9082 58.7666 16.3047 58.1445 16.3047ZM61.166 25V14.6299H62.8613V25H61.166ZM65.5479 15.6895H67.2363V17.5693H68.8359V18.9229H67.2363V22.5938C67.2363 23.332 67.5508 23.6602 68.2617 23.6602C68.501 23.6602 68.6309 23.6465 68.8359 23.626V24.9521C68.5898 25 68.2754 25.0342 67.9473 25.0342C66.2314 25.0342 65.5479 24.4531 65.5479 23.0039V18.9229H64.3652V17.5693H65.5479V15.6895ZM73.6006 18.7178C72.5889 18.7178 71.8779 19.4424 71.8027 20.5361H75.3232C75.2891 19.4287 74.6191 18.7178 73.6006 18.7178ZM75.3369 22.9424H76.9434C76.6221 24.3027 75.3848 25.1504 73.6211 25.1504C71.4199 25.1504 70.0938 23.6943 70.0938 21.2881C70.0938 18.8818 71.4404 17.3711 73.6074 17.3711C75.7402 17.3711 77.0186 18.7861 77.0186 21.1445V21.6914H71.7959V21.7803C71.8369 23.0244 72.5547 23.8037 73.6689 23.8037C74.5098 23.8037 75.0908 23.4961 75.3369 22.9424ZM78.7207 25V17.5215H80.3545V18.6836H80.4707C80.6758 17.9453 81.4824 17.3984 82.4463 17.3984C82.6924 17.3984 82.9932 17.4258 83.1504 17.4736V19.0459C83.0205 18.998 82.5693 18.9502 82.2822 18.9502C81.1816 18.9502 80.416 19.6338 80.416 20.6797V25H78.7207ZM84.21 19.6611C84.21 18.3076 85.4404 17.3711 87.2041 17.3711C88.9814 17.3711 90.0957 18.1572 90.2188 19.5176H88.626C88.5029 18.9912 88.0039 18.6562 87.2109 18.6562C86.4385 18.6562 85.8574 19.0254 85.8574 19.5654C85.8574 19.9893 86.2129 20.249 86.9648 20.4199L88.2842 20.7207C89.7129 21.042 90.376 21.6572 90.376 22.7578C90.376 24.1934 89.0566 25.1504 87.1904 25.1504C85.3242 25.1504 84.1484 24.3438 84.0186 22.9834H85.6934C85.8574 23.5371 86.3838 23.8652 87.2314 23.8652C88.0859 23.8652 88.6807 23.4893 88.6807 22.9355C88.6807 22.5117 88.3594 22.2451 87.6484 22.0879L86.3223 21.7803C84.8867 21.4521 84.21 20.7891 84.21 19.6611Z" fill="black"/>
<path d="M114.751 17.8773C114.61 17.7376 114.42 17.6592 114.222 17.6592C114.024 17.6592 113.834 17.7376 113.693 17.8773L111.001 20.5323L108.346 17.8773C108.205 17.7376 108.015 17.6592 107.817 17.6592C107.619 17.6592 107.429 17.7376 107.288 17.8773C107.218 17.947 107.162 18.0299 107.124 18.1213C107.086 18.2127 107.066 18.3108 107.066 18.4098C107.066 18.5088 107.086 18.6068 107.124 18.6982C107.162 18.7896 107.218 18.8726 107.288 18.9423L110.468 22.1223C110.538 22.1926 110.621 22.2484 110.712 22.2864C110.804 22.3245 110.902 22.3441 111.001 22.3441C111.1 22.3441 111.198 22.3245 111.289 22.2864C111.381 22.2484 111.464 22.1926 111.533 22.1223L114.751 18.9423C114.821 18.8726 114.877 18.7896 114.915 18.6982C114.953 18.6068 114.973 18.5088 114.973 18.4098C114.973 18.3108 114.953 18.2127 114.915 18.1213C114.877 18.0299 114.821 17.947 114.751 17.8773Z" fill="black"/>
</svg>
