<svg width="240" height="44" viewBox="0 0 240 44" fill="none" xmlns="http://www.w3.org/2000/svg">
<g filter="url(#filter0_d_14_4292)">
<rect x="2" y="1" width="236" height="40" rx="6" fill="white"/>
<rect x="2.5" y="1.5" width="235" height="39" rx="5.5" stroke="#DDE2E4"/>
<path d="M48.8011 18.3636C48.7415 17.8598 48.4995 17.4688 48.0753 17.1903C47.651 16.9119 47.1307 16.7727 46.5142 16.7727C46.0634 16.7727 45.669 16.8456 45.331 16.9915C44.9962 17.1373 44.7344 17.3378 44.5455 17.593C44.3598 17.8482 44.267 18.1383 44.267 18.4631C44.267 18.7348 44.3317 18.9685 44.4609 19.1641C44.5935 19.3563 44.7625 19.517 44.968 19.6463C45.1735 19.7723 45.389 19.8767 45.6143 19.9595C45.8397 20.0391 46.0469 20.1037 46.2358 20.1534L47.2699 20.4318C47.535 20.5014 47.83 20.5975 48.1548 20.7202C48.483 20.8428 48.7962 21.0102 49.0945 21.2223C49.3961 21.4311 49.6446 21.6996 49.8402 22.0277C50.0357 22.3558 50.1335 22.7585 50.1335 23.2358C50.1335 23.786 49.9893 24.2831 49.701 24.7273C49.416 25.1714 48.9983 25.5244 48.4482 25.7862C47.9013 26.0481 47.2367 26.179 46.4545 26.179C45.7254 26.179 45.094 26.0613 44.5604 25.826C44.0301 25.5907 43.6125 25.2625 43.3075 24.8416C43.0059 24.4207 42.8352 23.9318 42.7955 23.375H44.0682C44.1013 23.7595 44.2306 24.0777 44.456 24.3295C44.6847 24.5781 44.973 24.7637 45.321 24.8864C45.6723 25.0057 46.0502 25.0653 46.4545 25.0653C46.9252 25.0653 47.3478 24.9891 47.7223 24.8366C48.0968 24.6809 48.3935 24.4654 48.6122 24.1903C48.831 23.9119 48.9403 23.5871 48.9403 23.2159C48.9403 22.8778 48.8459 22.6027 48.657 22.3906C48.468 22.1785 48.2195 22.0062 47.9112 21.8736C47.603 21.741 47.2699 21.625 46.9119 21.5256L45.6591 21.1676C44.8636 20.9389 44.2339 20.6125 43.7699 20.1882C43.3059 19.764 43.0739 19.2088 43.0739 18.5227C43.0739 17.9527 43.228 17.4555 43.5362 17.0312C43.8478 16.6037 44.2654 16.2723 44.7891 16.0369C45.3161 15.7983 45.9044 15.679 46.554 15.679C47.2102 15.679 47.7936 15.7966 48.304 16.032C48.8144 16.264 49.2188 16.5821 49.517 16.9865C49.8187 17.3909 49.9777 17.8499 49.9943 18.3636H48.8011ZM55.1193 26.1591C54.3835 26.1591 53.7488 25.9967 53.2152 25.6719C52.6849 25.3438 52.2756 24.8864 51.9872 24.2997C51.7022 23.7098 51.5596 23.0237 51.5596 22.2415C51.5596 21.4593 51.7022 20.7699 51.9872 20.1733C52.2756 19.5734 52.6766 19.1061 53.1903 18.7713C53.7074 18.4332 54.3106 18.2642 55 18.2642C55.3977 18.2642 55.7905 18.3305 56.1783 18.4631C56.566 18.5956 56.919 18.8111 57.2372 19.1094C57.5554 19.4044 57.8089 19.7955 57.9979 20.2827C58.1868 20.7699 58.2812 21.3698 58.2812 22.0824V22.5795H52.3949V21.5653H57.0881C57.0881 21.1345 57.0019 20.75 56.8295 20.4119C56.6605 20.0739 56.4185 19.8071 56.1037 19.6115C55.7921 19.416 55.4242 19.3182 55 19.3182C54.5327 19.3182 54.1283 19.4342 53.7869 19.6662C53.4488 19.8949 53.1887 20.1932 53.0064 20.5611C52.8241 20.929 52.7329 21.3234 52.7329 21.7443V22.4205C52.7329 22.9972 52.8324 23.486 53.0312 23.8871C53.2334 24.2848 53.5135 24.5881 53.8714 24.7969C54.2294 25.0024 54.6453 25.1051 55.1193 25.1051C55.4275 25.1051 55.706 25.062 55.9545 24.9759C56.2064 24.8864 56.4235 24.7538 56.6058 24.5781C56.7881 24.3991 56.929 24.1771 57.0284 23.9119L58.1619 24.2301C58.0426 24.6146 57.8421 24.9527 57.5604 25.2443C57.2786 25.5327 56.9306 25.758 56.5163 25.9205C56.102 26.0795 55.6363 26.1591 55.1193 26.1591ZM62.2292 26.179C61.7453 26.179 61.3061 26.0878 60.9117 25.9055C60.5173 25.7199 60.2041 25.4531 59.9721 25.1051C59.7401 24.7538 59.6241 24.3295 59.6241 23.8324C59.6241 23.3949 59.7103 23.0402 59.8826 22.7685C60.055 22.4934 60.2853 22.2779 60.5737 22.1222C60.862 21.9664 61.1802 21.8504 61.5282 21.7741C61.8795 21.6946 62.2325 21.6316 62.5871 21.5852C63.0512 21.5256 63.4273 21.4808 63.7157 21.451C64.0074 21.4179 64.2195 21.3632 64.3521 21.2869C64.488 21.2107 64.5559 21.0781 64.5559 20.8892V20.8494C64.5559 20.3589 64.4217 19.9777 64.1532 19.706C63.888 19.4342 63.4854 19.2983 62.9451 19.2983C62.385 19.2983 61.9458 19.4209 61.6276 19.6662C61.3095 19.9115 61.0857 20.1733 60.9565 20.4517L59.8428 20.054C60.0417 19.59 60.3068 19.2287 60.6383 18.9702C60.973 18.7083 61.3376 18.526 61.732 18.4233C62.1298 18.3172 62.5209 18.2642 62.9053 18.2642C63.1506 18.2642 63.4323 18.294 63.7505 18.3537C64.072 18.41 64.3819 18.5277 64.6802 18.7067C64.9818 18.8857 65.232 19.1558 65.4309 19.517C65.6298 19.8783 65.7292 20.3622 65.7292 20.9688V26H64.5559V24.9659H64.4962C64.4167 25.1316 64.2841 25.3089 64.0985 25.4979C63.9129 25.6868 63.666 25.8475 63.3577 25.9801C63.0495 26.1127 62.6733 26.179 62.2292 26.179ZM62.4082 25.125C62.8722 25.125 63.2633 25.0339 63.5815 24.8516C63.903 24.6693 64.1449 24.4339 64.3073 24.1456C64.473 23.8572 64.5559 23.554 64.5559 23.2358V22.1619C64.5062 22.2216 64.3968 22.2763 64.2278 22.326C64.0621 22.3724 63.8698 22.4138 63.6511 22.4503C63.4356 22.4834 63.2252 22.5133 63.0197 22.5398C62.8175 22.563 62.6534 22.5829 62.5275 22.5994C62.2226 22.6392 61.9375 22.7038 61.6724 22.7933C61.4105 22.8795 61.1984 23.0104 61.036 23.1861C60.8769 23.3584 60.7974 23.5937 60.7974 23.892C60.7974 24.2997 60.9482 24.608 61.2498 24.8168C61.5547 25.0223 61.9408 25.125 62.4082 25.125ZM67.7867 26V18.3636H68.9202V19.517H68.9998C69.139 19.1392 69.3909 18.8326 69.7555 18.5973C70.12 18.362 70.531 18.2443 70.9884 18.2443C71.0746 18.2443 71.1823 18.246 71.3116 18.2493C71.4408 18.2526 71.5386 18.2576 71.6049 18.2642V19.4574C71.5651 19.4474 71.474 19.4325 71.3315 19.4126C71.1922 19.3894 71.0448 19.3778 70.889 19.3778C70.5178 19.3778 70.1863 19.4557 69.8947 19.6115C69.6063 19.764 69.3776 19.9761 69.2086 20.2479C69.0429 20.5163 68.96 20.8229 68.96 21.1676V26H67.7867ZM75.7815 26.1591C75.0656 26.1591 74.4492 25.9901 73.9321 25.652C73.4151 25.3139 73.0173 24.8482 72.7389 24.255C72.4605 23.6617 72.3213 22.9839 72.3213 22.2216C72.3213 21.446 72.4638 20.7616 72.7489 20.1683C73.0372 19.5717 73.4383 19.1061 73.952 18.7713C74.469 18.4332 75.0723 18.2642 75.7617 18.2642C76.2986 18.2642 76.7825 18.3636 77.2134 18.5625C77.6442 18.7614 77.9972 19.0398 78.2723 19.3977C78.5474 19.7557 78.7181 20.1733 78.7844 20.6506H77.6111C77.5216 20.3026 77.3227 19.9943 77.0145 19.7259C76.7096 19.4541 76.2986 19.3182 75.7815 19.3182C75.3242 19.3182 74.9231 19.4375 74.5784 19.6761C74.237 19.9115 73.9702 20.2446 73.778 20.6754C73.5891 21.103 73.4946 21.6051 73.4946 22.1818C73.4946 22.7718 73.5874 23.2855 73.773 23.723C73.9619 24.1605 74.2271 24.5002 74.5685 24.7422C74.9132 24.9841 75.3175 25.1051 75.7815 25.1051C76.0865 25.1051 76.3632 25.0521 76.6118 24.946C76.8604 24.84 77.0708 24.6875 77.2432 24.4886C77.4155 24.2898 77.5382 24.0511 77.6111 23.7727H78.7844C78.7181 24.2235 78.554 24.6295 78.2922 24.9908C78.0337 25.3487 77.6906 25.6338 77.2631 25.8459C76.8388 26.0547 76.345 26.1591 75.7815 26.1591ZM81.5889 21.4062V26H80.4156V15.8182H81.5889V19.5568H81.6883C81.8673 19.1624 82.1358 18.8492 82.4937 18.6172C82.855 18.3819 83.3356 18.2642 83.9355 18.2642C84.4558 18.2642 84.9116 18.3686 85.3027 18.5774C85.6938 18.7829 85.997 19.0994 86.2125 19.527C86.4312 19.9512 86.5406 20.4915 86.5406 21.1477V26H85.3673V21.2273C85.3673 20.6207 85.2099 20.1518 84.895 19.8203C84.5834 19.4856 84.1509 19.3182 83.5974 19.3182C83.2129 19.3182 82.8682 19.3994 82.5633 19.5618C82.2617 19.7242 82.0231 19.9612 81.8474 20.2727C81.6751 20.5843 81.5889 20.9621 81.5889 21.4062Z" fill="#9AA6AC"/>
<path fill-rule="evenodd" clip-rule="evenodd" d="M20 15.0008C18.9391 15.0008 17.9217 15.4222 17.1716 16.1723C16.4214 16.9225 16 17.9399 16 19.0008C16 20.0616 16.4214 21.079 17.1716 21.8292C17.9217 22.5793 18.9391 23.0008 20 23.0008C21.0609 23.0008 22.0783 22.5793 22.8284 21.8292C23.5786 21.079 24 20.0616 24 19.0008C24 17.9399 23.5786 16.9225 22.8284 16.1723C22.0783 15.4222 21.0609 15.0008 20 15.0008ZM14 19.0008C13.9999 18.0565 14.2226 17.1255 14.6502 16.2835C15.0777 15.4415 15.6979 14.7124 16.4604 14.1553C17.2229 13.5982 18.1061 13.229 19.0381 13.0776C19.9702 12.9262 20.9249 12.997 21.8245 13.2841C22.724 13.5713 23.5432 14.0667 24.2152 14.7301C24.8872 15.3935 25.3931 16.2061 25.6919 17.1019C25.9906 17.9977 26.0737 18.9514 25.9343 19.8853C25.795 20.8193 25.4372 21.7072 24.89 22.4768L27.707 25.2938C27.8892 25.4824 27.99 25.735 27.9877 25.9972C27.9854 26.2594 27.8802 26.5102 27.6948 26.6956C27.5094 26.881 27.2586 26.9862 26.9964 26.9884C26.7342 26.9907 26.4816 26.8899 26.293 26.7078L23.477 23.8918C22.5794 24.53 21.5233 24.9089 20.4247 24.9869C19.326 25.0648 18.2271 24.8389 17.2483 24.3337C16.2695 23.8286 15.4487 23.0638 14.8757 22.1231C14.3028 21.1824 13.9998 20.1022 14 19.0008Z" fill="#B0BABF"/>
</g>
<defs>
<filter id="filter0_d_14_4292" x="0" y="0" width="240" height="44" filterUnits="userSpaceOnUse" color-interpolation-filters="sRGB">
<feFlood flood-opacity="0" result="BackgroundImageFix"/>
<feColorMatrix in="SourceAlpha" type="matrix" values="0 0 0 0 0 0 0 0 0 0 0 0 0 0 0 0 0 0 127 0" result="hardAlpha"/>
<feOffset dy="1"/>
<feGaussianBlur stdDeviation="1"/>
<feComposite in2="hardAlpha" operator="out"/>
<feColorMatrix type="matrix" values="0 0 0 0 0.0627451 0 0 0 0 0.0941176 0 0 0 0 0.156863 0 0 0 0.05 0"/>
<feBlend mode="normal" in2="BackgroundImageFix" result="effect1_dropShadow_14_4292"/>
<feBlend mode="normal" in="SourceGraphic" in2="effect1_dropShadow_14_4292" result="shape"/>
</filter>
</defs>
</svg>
