<svg width="21" height="18" viewBox="0 0 21 18" fill="none" xmlns="http://www.w3.org/2000/svg">
<path d="M13.8335 12.3334L10.5002 9.00003M10.5002 9.00003L7.16688 12.3334M10.5002 9.00003V16.5M17.4919 14.325C18.3047 13.8819 18.9467 13.1808 19.3168 12.3322C19.6868 11.4837 19.7637 10.5361 19.5354 9.63894C19.307 8.74182 18.7865 7.94629 18.0558 7.3779C17.3251 6.80951 16.4259 6.50064 15.5002 6.50003H14.4502C14.198 5.5244 13.7278 4.61864 13.0752 3.85085C12.4225 3.08307 11.6042 2.47324 10.682 2.0672C9.75967 1.66116 8.75734 1.46949 7.75031 1.5066C6.74328 1.5437 5.75777 1.80861 4.86786 2.28142C3.97795 2.75422 3.2068 3.42261 2.6124 4.23635C2.01799 5.05008 1.61579 5.98797 1.43603 6.97952C1.25627 7.97107 1.30363 8.99047 1.57456 9.96108C1.84548 10.9317 2.33291 11.8282 3.00021 12.5834" stroke="#475467" stroke-width="1.66667" stroke-linecap="round" stroke-linejoin="round"/>
</svg>
